<?xml version="1.0" encoding="UTF-8" standalone="no"?>
<!-- Created with Inkscape (http://www.inkscape.org/) -->

<svg
   xmlns:dc="http://purl.org/dc/elements/1.1/"
   xmlns:cc="http://creativecommons.org/ns#"
   xmlns:rdf="http://www.w3.org/1999/02/22-rdf-syntax-ns#"
   xmlns:svg="http://www.w3.org/2000/svg"
   xmlns="http://www.w3.org/2000/svg"
   xmlns:sodipodi="http://sodipodi.sourceforge.net/DTD/sodipodi-0.dtd"
   xmlns:inkscape="http://www.inkscape.org/namespaces/inkscape"
   width="12000"
   height="900"
   id="svg2"
   version="1.1"
   inkscape:version="0.48.2 r9819"
   sodipodi:docname="default_source.svg">
  <defs
     id="defs4" />
  <sodipodi:namedview
     id="base"
     pagecolor="#ffffff"
     bordercolor="#666666"
     borderopacity="1.0"
     inkscape:pageopacity="0.0"
     inkscape:pageshadow="2"
     inkscape:zoom="0.095833333"
     inkscape:cx="6000"
     inkscape:cy="450"
     inkscape:document-units="px"
     inkscape:current-layer="layer1"
     showgrid="true"
     inkscape:window-width="1280"
     inkscape:window-height="972"
     inkscape:window-x="-8"
     inkscape:window-y="-8"
     inkscape:window-maximized="1">
    <inkscape:grid
       type="xygrid"
       id="grid4690"
       empspacing="100"
       visible="true"
       enabled="true"
       snapvisiblegridlinesonly="true" />
  </sodipodi:namedview>
  <metadata
     id="metadata7">
    <rdf:RDF>
      <cc:Work
         rdf:about="">
        <dc:format>image/svg+xml</dc:format>
        <dc:type
           rdf:resource="http://purl.org/dc/dcmitype/StillImage" />
        <dc:title />
      </cc:Work>
    </rdf:RDF>
  </metadata>
  <g
     inkscape:label="Layer 1"
     inkscape:groupmode="layer"
     id="layer1"
     transform="translate(0,-152.36218)">
    <path
       id="rect2985-1-4-4-5"
       style="fill:#31b6e6;fill-opacity:1;fill-rule:nonzero;stroke:none"
       d="m 1399.9999,152.36218 100,0 0,100 -100,0 z m -100,0 100,0 0,100 -100,0 z m -100,0 100,0 0,100 -100,0 z m -100,0 100,0 0,100 -100,0 z m 300.0001,100 100,0 0,100 -100,0 z m 0,100 100,0 0,100 -100,0 z m 0,100 100,0 0,100 -100,0 z m 0,100 100,0 0,100 -100,0 z m -100.0001,0 100,0 0,100 -100,0 z m -100,0 100,0 0,100 -100,0 z m -100,0 100,0 0,100 -100,0 z m 0,100 100,0 0,100 -100,0 z m 0,100 100,0 0,100 -100,0 z m 0,100 100,0 0,100 -100,0 z m 300,100 100,0 0,100.00002 -100,0 z m -100,0 100,0 0,100.00002 -100,0 z m -100,0 100,0 0,100.00002 -100,0 z m -100,0 100,0 0,100.00002 -100,0 z"
       inkscape:connector-curvature="0" />
    <path
       id="rect2985-1-4-4-6"
       style="fill:#31b6e6;fill-opacity:1;fill-rule:nonzero;stroke:none"
       d="m 2500,152.36218 100,0 0,100 -100,0 z m -100,0 100,0 0,100 -100,0 z m -100,0 100,0 0,100 -100,0 z m -100,0 100,0 0,100 -100,0 z m 300.0001,100 100,0 0,100 -100,0 z m 0,100 100,0 0,100 -100,0 z m 0,100 100,0 0,100 -100,0 z m 0,100 100,0 0,100 -100,0 z m -100.0001,0 100,0 0,100 -100,0 z m -100,0 100,0 0,100 -100,0 z m -100,0 100,0 0,100 -100,0 z m 300,100 100,0 0,99.99998 -100,0 z m 0,99.99998 100,0 0,100 -100,0 z m 0,100 100,0 0,100 -100,0 z m 0,100 100,0 0,100.00004 -100,0 z m -100,0 100,0 0,100.00004 -100,0 z m -100,0 100,0 0,100.00004 -100,0 z m -100,0 100,0 0,100.00004 -100,0 z"
       inkscape:connector-curvature="0" />
    <path
       id="rect2985-1-4-4-8"
       style="fill:#31b6e6;fill-opacity:1;fill-rule:nonzero;stroke:none"
       d="m 3600,152.36218 100,0 0,100 -100,0 z m -299.9999,0 100,0 0,100 -100,0 z m 299.9999,100 100,0 0,100 -100,0 z m -299.9999,0 100,0 0,100 -100,0 z m 299.9999,100 100,0 0,100 -100,0 z m -299.9999,0 100,0 0,100 -100,0 z m 299.9999,100 100,0 0,100 -100,0 z m -299.9999,0 100,0 0,100 -100,0 z m 299.9999,100 100,0 0,100 -100,0 z m -100,0 100,0 0,100 -100,0 z m -99.9999,0 99.9999,0 0,100 -99.9999,0 z m -100,0 100,0 0,100 -100,0 z m 299.9999,100 100,0 0,99.99998 -100,0 z m 0,99.99998 100,0 0,100.0001 -100,0 z m 0,100.0001 100,0 0,100 -100,0 z m 0,100 100,0 0,100.00004 -100,0 z"
       inkscape:connector-curvature="0" />
    <path
       inkscape:connector-curvature="0"
       id="rect2985-1-4-4-5-0"
       style="fill:#31b6e6;fill-opacity:1;fill-rule:nonzero;stroke:none"
       d="m 4500,152.36218 -100,0 0,100 100,0 z m 100,0 -100,0 0,100 100,0 z m 100,0 -100,0 0,100 100,0 z m 100,0 -100,0 0,100 100,0 z m -300.0001,100 -100,0 0,100 100,0 z m 0,100 -100,0 0,100 100,0 z m 0,100 -100,0 0,100 100,0 z m 0,100 -100,0 0,100 100,0 z m 100.0001,0 -100,0 0,100 100,0 z m 100,0 -100,0 0,100 100,0 z m 100,0 -100,0 0,100 100,0 z m 0,100 -100,0 0,99.99998 100,0 z m 0,99.99998 -100,0 0,100 100,0 z m 0,100 -100,0 0,100 100,0 z m -300,100 -100,0 0,100.00004 100,0 z m 100,0 -100,0 0,100.00004 100,0 z m 100,0 -100,0 0,100.00004 100,0 z m 100,0 -100,0 0,100.00004 100,0 z" />
    <path
       style="fill:#31b6e6;fill-opacity:1;fill-rule:nonzero;stroke:none"
       d="m 5500,152.36218 0,100 0,100 0,100 0,100 0,100 0,99.99998 0,100 0,100 0,100.00004 100,0 100,0 100,0 100,0 0,-100.00004 0,-100 0,-100 0,-99.99998 0,-100 -100,0 -100,0 -100,0 0,-100 0,-100 0,-100 100,0 100,0 100,0 0,-100 -100,0 -100,0 -100,0 -100,0 z m 100,500 100,0 100,0 0,99.99998 0,100 0,100 -100,0 -100,0 0,-100 0,-100 0,-99.99998 z"
       id="rect2985-72"
       inkscape:connector-curvature="0" />
    <path
       style="fill:#31b6e6;fill-opacity:1;fill-rule:nonzero;stroke:none"
       d="m 6600,152.36218 0,100 100,0 100,0 100,0 0,100 0,100 0,100 0,100 0,99.99996 0,100 0,100 0,100.00006 100,0 0,-100.00006 0,-100 0,-100 0,-99.99996 0,-100 0,-100 0,-100 0,-100 0,-100 -100,0 -100,0 -100,0 -100,0 z"
       id="rect2985-1-9-6-1"
       inkscape:connector-curvature="0" />
    <path
       inkscape:connector-curvature="0"
       style="fill:#31b6e6;fill-opacity:1;fill-rule:nonzero;stroke:none"
       d="m 9200,1052.3622 0,-100.00005 0,-100 0,-100 0,-99.99999 0,-100 0,-100 0,-99.99998 0,-100 0,-100 -100,0 -100,0 -100,0 -100,0 0,100 0,100 0,99.99998 0,100 0,100 100,0 100,0 100,0 0,99.99999 0,100 0,100 -100,0 -100,0 -100,0 0,100.00005 100,0 100,0 100,0 100,0 z m -100,-500.00004 -100,0 -100,0 0,-100 0,-99.99998 0,-100 100,0 100,0 0,100 0,99.99998 0,100 z"
       id="rect2985-72-5" />
    <path
       id="rect2985-7-4-3-0-4"
       style="fill:#31b6e6;fill-opacity:1;fill-rule:nonzero;stroke:none"
       d="m 8000.0001,152.36218 100,0 0,100 -100,0 z m -100.0001,0 100,0 0,100 -100,0 z m 100.0001,100 100,0 0,100 -100,0 z m 0,100 100,0 0,100 -100,0 z m 0,100 100,0 0,100 -100,0 z m 0,100 100,0 0,100 -100,0 z m -100.0001,0 100,0 0,100 -100,0 z m 100.0001,100 100,0 0,99.99998 -100,0 z m 0,99.99998 100,0 0,100 -100,0 z m 0,100 100,0 0,100 -100,0 z m 0,100 100,0 0,100.00004 -100,0 z m -100.0001,0 100,0 0,100.00004 -100,0 z m -100,-799.99998 100,0 0,100 -100,0 z m -99.9999,0 100,0 0,100 -100,0 z m 0,100.0001 100,0 0,100 -100,0 z m 0,100 100,0 0,100 -100,0 z m 0,100 100,0 0,100 -100,0 z m 99.9999,99.9999 100,0 0,100 -100,0 z m -99.9999,0 100,0 0,100 -100,0 z m 0,100 100,0 0,99.99998 -100,0 z m 0,99.99998 100,0 0,100 -100,0 z m 0,100 100,0 0,100 -100,0 z m 99.9999,100 100,0 0,100.00004 -100,0 z m -99.9999,0 100,0 0,100.00004 -100,0 z"
       inkscape:connector-curvature="0" />
    <path
       id="path4437-8"
       style="fill:#31b6e6;fill-opacity:1;fill-rule:nonzero;stroke:none"
       d="m 11450,152.36196 c -248.528,0 -450,201.4719 -450,450 0,248.52818 201.472,450.00024 450,450.00024 248.528,0 450,-201.47206 450,-450.00024 0,-248.5281 -201.472,-450 -450,-450 z m 0,100 c 193.3,0 350,156.7004 350,350 0,193.29968 -156.7,350.00002 -350,350.00002 -193.3,0 -350,-156.70034 -350,-350.00002 0,-193.2996 156.7,-350 350,-350 z m 0,-0.062 c -21.274,0 -42.116,1.8953 -62.344,5.5313 l -115.093,345.3125 250.812,-1.7188 -77.094,350.84382 c 1.237,0.013 2.48,0.031 3.719,0.031 5.016,0 10.004,-0.1348 14.969,-0.3438 l 162.469,-400.00002 -204.75,1.7188 143.781,-281.5313 c -36.435,-12.853 -75.635,-19.8437 -116.469,-19.8437 z"
       inkscape:connector-curvature="0" />
    <path
       id="rect2985-7-4-3-0-4-7-7"
       style="fill:#31b6e6;fill-opacity:1;fill-rule:nonzero;stroke:none"
       d="m 10200,152.36218 100,0 0,100 -100,0 z m -100,0 100,0 0,100 -100,0 z m 100,100 100,0 0,100 -100,0 z m 0,100 100,0 0,99.99998 -100,0 z m 0,99.99998 100,0 0,100 -100,0 z m 0,100 100,0 0,100 -100,0 z m 0,100 100,0 0,99.99997 -100,0 z m 0,99.99997 100,0 0,100 -100,0 z m 0,100 100,0 0,100 -100,0 z m 0,100 100,0 0,100.00007 -100,0 z m -100,0 100,0 0,100.00007 -100,0 z m -100.0002,-799.99995 100.0002,0 0,100 -100.0002,0 z m -99.9998,0 100,0 0,100 -100,0 z m 0,100.0001 100,0 0,100 -100,0 z m 0,100 100,0 0,99.99998 -100,0 z m 0,99.99998 100,0 0,100 -100,0 z m 0,99.9999 100,0 0,100 -100,0 z m 0,100 100,0 0,99.99997 -100,0 z m 0,99.99997 100,0 0,100 -100,0 z m 0,100 100,0 0,100 -100,0 z m 99.9998,100 100.0002,0 0,100.00007 -100.0002,0 z m -99.9998,0 100,0 0,100.00007 -100,0 z"
       inkscape:connector-curvature="0" />
    <path
       inkscape:connector-curvature="0"
       style="fill:#31b6e6;fill-opacity:1;stroke:#000000;stroke-width:1px;stroke-linecap:butt;stroke-linejoin:miter;stroke-opacity:1"
       d="m 2735.9051,-1336.4643 -0.125,0.4063 c 2.6194,-0.1576 5.2436,-0.2938 7.875,-0.4063 l -7.75,0 z"
       id="path4483-8" />
    <path
       inkscape:connector-curvature="0"
       style="fill:#31b6e6;fill-opacity:1;stroke:#000000;stroke-width:1px;stroke-linecap:butt;stroke-linejoin:miter;stroke-opacity:1"
       d="m 2743.5921,-1336.4643 -0.062,0.3125 0.125,-0.2813 c -0.021,0 -0.041,-0.03 -0.062,-0.031 z"
       id="path4415-3" />
    <path
       id="rect2985-7-4-3-0-5-8"
       style="fill:#31b6e6;fill-opacity:1;fill-rule:nonzero;stroke:none"
       d="m 300,152.36218 100,0 0,100 -100,0 z m 0,100 100,0 0,100 -100,0 z m 0,100 100,0 0,100 -100,0 z m 0,100 100,0 0,100 -100,0 z m 0,100 100,0 0,100.0001 -100,0 z m 0,100.0001 100,0 0,100 -100,0 z m 0,100 100,0 0,100 -100,0 z m 0,100 100,0 0,100 -100,0 z m 0,100 100,0 0,100.00012 -100,0 z"
       inkscape:connector-curvature="0" />
  </g>
</svg>
