<?xml version="1.0" encoding="UTF-8" standalone="no"?>
<!-- Created with Inkscape (http://www.inkscape.org/) -->

<svg
   xmlns:dc="http://purl.org/dc/elements/1.1/"
   xmlns:cc="http://creativecommons.org/ns#"
   xmlns:rdf="http://www.w3.org/1999/02/22-rdf-syntax-ns#"
   xmlns:svg="http://www.w3.org/2000/svg"
   xmlns="http://www.w3.org/2000/svg"
   xmlns:sodipodi="http://sodipodi.sourceforge.net/DTD/sodipodi-0.dtd"
   xmlns:inkscape="http://www.inkscape.org/namespaces/inkscape"
   width="12000"
   height="900"
   id="svg2"
   version="1.1"
   inkscape:version="0.48.2 r9819"
   sodipodi:docname="diagrams_source.svg">
  <defs
     id="defs4" />
  <sodipodi:namedview
     id="base"
     pagecolor="#ffffff"
     bordercolor="#666666"
     borderopacity="1.0"
     inkscape:pageopacity="0.0"
     inkscape:pageshadow="2"
     inkscape:zoom="0.12777778"
     inkscape:cx="7380.2859"
     inkscape:cy="1801.341"
     inkscape:document-units="px"
     inkscape:current-layer="layer1"
     showgrid="true"
     inkscape:window-width="1280"
     inkscape:window-height="972"
     inkscape:window-x="-8"
     inkscape:window-y="-8"
     inkscape:window-maximized="1">
    <inkscape:grid
       type="xygrid"
       id="grid3139"
       empspacing="50"
       visible="true"
       enabled="true"
       snapvisiblegridlinesonly="true" />
  </sodipodi:namedview>
  <metadata
     id="metadata7">
    <rdf:RDF>
      <cc:Work
         rdf:about="">
        <dc:format>image/svg+xml</dc:format>
        <dc:type
           rdf:resource="http://purl.org/dc/dcmitype/StillImage" />
        <dc:title />
      </cc:Work>
    </rdf:RDF>
  </metadata>
  <g
     inkscape:label="Layer 1"
     inkscape:groupmode="layer"
     id="layer1"
     transform="translate(0,-152.36218)">
    <path
       id="rect2985-1-4-4-8-8-5"
       style="fill:#31b6e6;fill-opacity:1;fill-rule:nonzero;stroke:none"
       d="m 550.0001,502.36218 349.99997,0 0,200 -349.99997,0 z m -550.0001,0 350,0 0,200 -350,0 z m 550.0001,-350 350,0 0,200 -350,0 z m -550.0001,0 350,0 0,200 -350,0 z m 550.00013,700 350,0 0,200.00002 -350,0 z m -550.00013,0 350,0 0,200.00002 -350,0 z"
       inkscape:connector-curvature="0" />
    <path
       id="rect2985-7-5-1"
       style="fill:#31b6e6;fill-opacity:1;fill-rule:nonzero;stroke:none"
       d="m 1100,152.36218 900,0 0,200 -900,0 z m 550,350 350,0 0,200 -350,0 z m -550,0 350,0 0,200 -350,0 z m 550,350 350,0 0,200.00002 -350,0 z m -550,0 350,0 0,200.00002 -350,0 z"
       inkscape:connector-curvature="0" />
    <path
       id="rect2985-7-5-7"
       style="fill:#31b6e6;fill-opacity:1;fill-rule:nonzero;stroke:none"
       d="m 2200,502.36218 900,0 0,200 -900,0 z m 550,-350 350,0 0,200 -350,0 z m -550,0 350,0 0,200 -350,0 z m 550,700 350,0 0,200.00002 -350,0 z m -550,0 350,0 0,200.00002 -350,0 z"
       inkscape:connector-curvature="0" />
    <path
       id="rect2985-7-5-6-2"
       style="fill:#31b6e6;fill-opacity:1;fill-rule:nonzero;stroke:none"
       d="m 3300,152.36218 900,0 0,200 -900,0 z m 0,350 900,0 0,200 -900,0 z m 550,350 350,0 0,200.00002 -350,0 z m -550,0 350,0 0,200.00002 -350,0 z"
       inkscape:connector-curvature="0" />
    <path
       id="rect2985-7-5-1-3"
       style="fill:#31b6e6;fill-opacity:1;fill-rule:nonzero;stroke:none"
       d="m 4400,1052.3622 900,0 0,-200.00004 -900,0 z m 550,-350.00004 350,0 0,-199.99998 -350,0 z m -550,0 350,0 0,-199.99998 -350,0 z m 550,-349.99998 350,0 0,-200 -350,0 z m -550,0 350,0 0,-200 -350,0 z"
       inkscape:connector-curvature="0" />
    <path
       id="rect2985-7-5-6-1"
       style="fill:#31b6e6;fill-opacity:1;fill-rule:nonzero;stroke:none"
       d="m 5500,852.36216 900,0 0,200.00004 -900,0 z m 0,-699.99998 900,0 0,200 -900,0 z m 550,350 350,0 0,200 -350,0 z m -550,0 350,0 0,200 -350,0 z"
       inkscape:connector-curvature="0" />
    <path
       id="rect2985-7-5-6-2-6"
       style="fill:#31b6e6;fill-opacity:1;fill-rule:nonzero;stroke:none"
       d="m 6600,1052.3622 900,0 0,-200.00004 -900,0 z m 0,-350.00004 900,0 0,-199.99998 -900,0 z m 550,-349.99998 350,0 0,-200 -350,0 z m -550,0 350,0 0,-200 -350,0 z"
       inkscape:connector-curvature="0" />
    <path
       id="rect2985-7-5-8-6"
       style="fill:#31b6e6;fill-opacity:1;fill-rule:nonzero;stroke:none"
       d="m 7700,502.36218 900,0 0,199.99998 -900,0 z m 0,349.99998 900,0 0,200.00004 -900,0 z m 0,-699.99998 900,0 0,200 -900,0 z"
       inkscape:connector-curvature="0" />
    <path
       id="path3400"
       style="fill:#31b6e6;fill-opacity:1;fill-rule:evenodd;stroke:#ffffff;stroke-width:0;stroke-linecap:butt;stroke-linejoin:miter;stroke-miterlimit:4;stroke-opacity:1;stroke-dasharray:none"
       d="m 11237.5,414.86216 c -103.553,0 -187.5,83.94661 -187.5,187.5 0,220.91389 179.086,400.00004 400,400.00004 150.693,0 281.861,-83.37519 350.063,-206.46879 -1.594,1.13489 -3.159,2.31007 -4.781,3.40625 -3.159,2.13402 -6.361,4.1727 -9.625,6.15625 -3.265,1.98355 -6.573,3.89066 -9.938,5.71875 -3.365,1.82809 -6.789,3.58233 -10.25,5.25 -3.461,1.66767 -6.98,3.24773 -10.531,4.75 -3.552,1.50227 -7.144,2.9181 -10.781,4.25 -3.638,1.3319 -7.313,2.59345 -11.032,3.75 -3.718,1.15655 -7.487,2.21128 -11.281,3.1875 -3.794,0.97622 -7.604,1.86532 -11.469,2.65625 -3.865,0.79093 -7.787,1.49309 -11.718,2.09375 -3.932,0.60066 -7.883,1.09459 -11.875,1.5 -3.993,0.40541 -8.015,0.73231 -12.063,0.9375 -4.048,0.20519 -8.12,0.3125 -12.219,0.3125 -4.099,0 -8.171,-0.10731 -12.218,-0.3125 -4.049,-0.20519 -8.071,-0.53209 -12.063,-0.9375 -3.992,-0.40541 -7.944,-0.89934 -11.875,-1.5 -3.931,-0.60066 -7.854,-1.30282 -11.719,-2.09375 -3.865,-0.79093 -7.674,-1.68003 -11.468,-2.65625 -3.795,-0.97622 -7.563,-2.03095 -11.282,-3.1875 -3.718,-1.15655 -7.393,-2.4181 -11.031,-3.75 -3.638,-1.3319 -7.23,-2.74773 -10.781,-4.25 -3.552,-1.50227 -7.071,-3.08233 -10.531,-4.75 -3.462,-1.66767 -6.885,-3.42191 -10.25,-5.25 -3.366,-1.82809 -6.674,-3.7352 -9.938,-5.71875 -3.265,-1.98355 -6.466,-4.02223 -9.625,-6.15625 -3.159,-2.13402 -6.264,-4.34547 -9.312,-6.625 -3.049,-2.27953 -6.037,-4.64244 -8.969,-7.0625 -2.933,-2.42006 -5.814,-4.91314 -8.625,-7.46875 -2.812,-2.55561 -5.564,-5.15756 -8.25,-7.84375 -2.686,-2.68619 -5.32,-5.4382 -7.875,-8.25 -2.556,-2.8118 -5.049,-5.69257 -7.469,-8.625 -2.42,-2.93243 -4.752,-5.92066 -7.031,-8.96875 -2.28,-3.04809 -4.491,-6.15373 -6.625,-9.3125 -2.134,-3.15877 -4.204,-6.39177 -6.188,-9.65625 -1.983,-3.26448 -3.89,-6.57228 -5.718,-9.9375 -1.829,-3.36522 -3.583,-6.75777 -5.25,-10.21875 -1.668,-3.46098 -3.248,-6.97949 -4.75,-10.53125 -1.503,-3.55176 -2.919,-7.14367 -4.25,-10.78125 -1.332,-3.63758 -2.563,-7.31284 -3.719,-11.03125 -1.157,-3.71841 -2.243,-7.48697 -3.219,-11.28125 -0.976,-3.79428 -1.865,-7.63483 -2.656,-11.5 -0.791,-3.86517 -1.462,-7.75641 -2.063,-11.6875 -0.6,-3.93109 -1.126,-7.88297 -1.531,-11.875 -0.405,-3.99203 -0.701,-8.01451 -0.906,-12.0625 -0.205,-4.04799 -0.313,-8.11976 -0.313,-12.21875 0,-103.55339 -83.946,-187.5 -187.5,-187.5 z m 0,137.5 c 27.614,0 50,22.38576 50,50 0,27.61424 -22.386,50 -50,50 -27.614,0 -50,-22.38576 -50,-50 0,-27.61424 22.386,-50 50,-50 z m 212.5,-350 c -150.692,0 -281.861,83.37515 -350.062,206.46875 1.593,-1.13489 3.158,-2.31007 4.781,-3.40625 3.159,-2.13402 6.36,-4.1727 9.625,-6.15625 3.264,-1.98355 6.572,-3.89066 9.938,-5.71875 3.365,-1.82809 6.788,-3.58233 10.25,-5.25 3.46,-1.66767 6.979,-3.24773 10.531,-4.75 3.551,-1.50227 7.143,-2.9181 10.781,-4.25 3.638,-1.3319 7.313,-2.59345 11.031,-3.75 3.719,-1.15655 7.487,-2.21128 11.282,-3.1875 3.794,-0.97622 7.603,-1.86532 11.468,-2.65625 3.865,-0.79093 7.788,-1.49309 11.719,-2.09375 3.931,-0.60066 7.883,-1.09459 11.875,-1.5 3.992,-0.40541 8.014,-0.73231 12.063,-0.9375 4.047,-0.20519 8.119,-0.3125 12.218,-0.3125 4.099,0 8.171,0.10731 12.219,0.3125 4.048,0.20519 8.07,0.53209 12.063,0.9375 3.992,0.40541 7.943,0.89934 11.875,1.5 3.931,0.60066 7.853,1.30282 11.718,2.09375 3.865,0.79093 7.675,1.68003 11.469,2.65625 3.794,0.97622 7.563,2.03095 11.281,3.1875 3.719,1.15655 7.394,2.4181 11.032,3.75 3.637,1.3319 7.229,2.74773 10.781,4.25 3.551,1.50227 7.07,3.08233 10.531,4.75 3.461,1.66767 6.885,3.42191 10.25,5.25 3.365,1.82809 6.673,3.7352 9.938,5.71875 3.264,1.98355 6.466,4.02223 9.625,6.15625 3.158,2.13402 6.264,4.34547 9.312,6.625 3.048,2.27953 6.036,4.64244 8.969,7.0625 2.932,2.42006 5.813,4.91314 8.625,7.46875 2.811,2.55561 5.563,5.15756 8.25,7.84375 2.686,2.68619 5.319,5.4382 7.875,8.25 2.555,2.8118 5.049,5.69257 7.469,8.625 2.42,2.93243 4.751,5.92066 7.031,8.96875 2.279,3.04809 4.491,6.15373 6.625,9.3125 2.134,3.15877 4.204,6.39177 6.187,9.65625 1.984,3.26448 3.891,6.57228 5.719,9.9375 1.828,3.36522 3.582,6.75777 5.25,10.21875 1.668,3.46098 3.248,6.97949 4.75,10.53125 1.502,3.55176 2.918,7.14367 4.25,10.78125 1.332,3.63758 2.562,7.31284 3.719,11.03125 1.156,3.71841 2.242,7.48697 3.219,11.28125 0.976,3.79428 1.865,7.63483 2.656,11.5 0.791,3.86517 1.462,7.75641 2.062,11.6875 0.601,3.93109 1.126,7.88297 1.532,11.875 0.405,3.99203 0.701,8.01451 0.906,12.0625 0.205,4.04799 0.312,8.11976 0.312,12.21875 0,103.55339 83.947,187.5 187.5,187.5 103.554,0 187.5,-83.94661 187.5,-187.5 0,-220.91389 -179.086,-400 -400,-400 z m 212.5,350 c 27.614,0 50,22.38576 50,50 0,27.61424 -22.386,50 -50,50 -27.614,0 -50,-22.38576 -50,-50 0,-27.61424 22.386,-50 50,-50 z"
       inkscape:connector-curvature="0" />
    <path
       inkscape:connector-curvature="0"
       style="fill:#31b6e6;fill-opacity:1;fill-rule:evenodd;stroke:#ffffff;stroke-width:0;stroke-linecap:butt;stroke-linejoin:miter;stroke-miterlimit:4;stroke-opacity:1;stroke-dasharray:none"
       d="m 9037.5,414.86218 c -103.553,0 -187.5,83.9466 -187.5,187.5 0,220.9139 179.086,400.00002 400,400.00002 150.693,0 281.861,-83.37522 350.063,-206.46882 -1.594,1.1349 -3.159,2.3101 -4.781,3.4063 -3.159,2.134 -6.361,4.1727 -9.625,6.1562 -3.265,1.9836 -6.573,3.8907 -9.938,5.7188 -3.365,1.8281 -6.789,3.5823 -10.25,5.25 -3.461,1.6677 -6.98,3.2477 -10.531,4.75 -3.552,1.5023 -7.144,2.9181 -10.781,4.25 -3.638,1.3319 -7.313,2.5934 -11.032,3.75 -3.718,1.1565 -7.487,2.2113 -11.281,3.1875 -3.794,0.9762 -7.604,1.8653 -11.469,2.6562 -3.865,0.791 -7.787,1.4931 -11.718,2.0938 -3.932,0.6006 -7.883,1.0946 -11.875,1.5 -3.993,0.4054 -8.015,0.7323 -12.063,0.9375 -4.048,0.2052 -8.12,0.3125 -12.219,0.3125 -4.099,0 -8.171,-0.1073 -12.218,-0.3125 -4.049,-0.2052 -8.071,-0.5321 -12.063,-0.9375 -3.992,-0.4054 -7.944,-0.8994 -11.875,-1.5 -3.931,-0.6007 -7.854,-1.3028 -11.719,-2.0938 -3.865,-0.7909 -7.674,-1.68 -11.468,-2.6562 -3.795,-0.9762 -7.563,-2.031 -11.282,-3.1875 -3.718,-1.1566 -7.393,-2.4181 -11.031,-3.75 -3.638,-1.3319 -7.23,-2.7477 -10.781,-4.25 -3.552,-1.5023 -7.071,-3.0823 -10.531,-4.75 -3.462,-1.6677 -6.885,-3.4219 -10.25,-5.25 -3.366,-1.8281 -6.674,-3.7352 -9.938,-5.7188 -3.265,-1.9835 -6.466,-4.0222 -9.625,-6.1562 -3.159,-2.134 -6.264,-4.3455 -9.312,-6.625 -3.049,-2.2795 -6.037,-4.6425 -8.969,-7.0625 -2.933,-2.4201 -5.814,-4.9132 -8.625,-7.4688 -2.812,-2.5556 -5.564,-5.1575 -8.25,-7.8437 -2.686,-2.6862 -5.32,-5.4382 -7.875,-8.25 -2.556,-2.8118 -5.049,-5.6926 -7.469,-8.625 -2.42,-2.9324 -4.752,-5.9207 -7.031,-8.9688 -2.28,-3.0481 -4.491,-6.1537 -6.625,-9.3125 -2.134,-3.1587 -4.204,-6.3917 -6.188,-9.6562 -1.983,-3.2645 -3.89,-6.5723 -5.718,-9.9375 -1.829,-3.3652 -3.583,-6.7578 -5.25,-10.2188 -1.668,-3.4609 -3.248,-6.9795 -4.75,-10.5312 -1.503,-3.5518 -2.919,-7.1437 -4.25,-10.7813 -1.332,-3.6375 -2.563,-7.3128 -3.719,-11.0312 -1.157,-3.7184 -2.243,-7.487 -3.219,-11.2813 -0.976,-3.7942 -1.865,-7.6348 -2.656,-11.5 -0.791,-3.8651 -1.462,-7.7564 -2.063,-11.6875 -0.6,-3.9311 -1.126,-7.8829 -1.531,-11.875 -0.405,-3.992 -0.701,-8.0145 -0.906,-12.0625 -0.205,-4.048 -0.313,-8.1197 -0.313,-12.2187 0,-103.5534 -83.946,-187.5 -187.5,-187.5 z m 0,137.5 c 27.614,0 50,22.3857 50,50 0,27.6142 -22.386,50 -50,50 -27.614,0 -50,-22.3858 -50,-50 0,-27.6143 22.386,-50 50,-50 z"
       id="path3400-4" />
    <path
       inkscape:connector-curvature="0"
       style="fill:#31b6e6;fill-opacity:1;fill-rule:evenodd;stroke:#ffffff;stroke-width:0;stroke-linecap:butt;stroke-linejoin:miter;stroke-miterlimit:4;stroke-opacity:1;stroke-dasharray:none"
       d="m 10350,202.36218 c -150.692,0 -281.861,83.3751 -350.062,206.4687 1.593,-1.1349 3.158,-2.31 4.781,-3.4062 3.159,-2.134 6.36,-4.1727 9.625,-6.1563 3.264,-1.9835 6.572,-3.8906 9.938,-5.7187 3.365,-1.8281 6.788,-3.5823 10.25,-5.25 3.46,-1.6677 6.979,-3.2477 10.531,-4.75 3.551,-1.5023 7.143,-2.9181 10.781,-4.25 3.638,-1.3319 7.313,-2.5935 11.031,-3.75 3.719,-1.1566 7.487,-2.2113 11.282,-3.1875 3.794,-0.9762 7.603,-1.8653 11.468,-2.6563 3.865,-0.7909 7.788,-1.4931 11.719,-2.0937 3.931,-0.6007 7.883,-1.0946 11.875,-1.5 3.992,-0.4054 8.014,-0.7323 12.063,-0.9375 4.047,-0.2052 8.119,-0.3125 12.218,-0.3125 4.099,0 8.171,0.1073 12.219,0.3125 4.048,0.2052 8.07,0.5321 12.063,0.9375 3.992,0.4054 7.943,0.8993 11.875,1.5 3.931,0.6006 7.853,1.3028 11.718,2.0937 3.865,0.791 7.675,1.6801 11.469,2.6563 3.794,0.9762 7.563,2.0309 11.281,3.1875 3.719,1.1565 7.394,2.4181 11.032,3.75 3.637,1.3319 7.229,2.7477 10.781,4.25 3.551,1.5023 7.07,3.0823 10.531,4.75 3.461,1.6677 6.885,3.4219 10.25,5.25 3.365,1.8281 6.673,3.7352 9.938,5.7187 3.264,1.9836 6.466,4.0223 9.625,6.1563 3.158,2.134 6.264,4.3455 9.312,6.625 3.048,2.2795 6.036,4.6424 8.969,7.0625 2.932,2.42 5.813,4.9131 8.625,7.4687 2.811,2.5556 5.563,5.1576 8.25,7.8438 2.686,2.6862 5.319,5.4382 7.875,8.25 2.555,2.8118 5.049,5.6926 7.469,8.625 2.42,2.9324 4.751,5.9206 7.031,8.9687 2.279,3.0481 4.491,6.1538 6.625,9.3125 2.134,3.1588 4.204,6.3918 6.187,9.6563 1.984,3.2645 3.891,6.5723 5.719,9.9375 1.828,3.3652 3.582,6.7578 5.25,10.2187 1.668,3.461 3.248,6.9795 4.75,10.5313 1.502,3.5517 2.918,7.1437 4.25,10.7812 1.332,3.6376 2.562,7.3129 3.719,11.0313 1.156,3.7184 2.242,7.487 3.219,11.2812 0.976,3.7943 1.865,7.6349 2.656,11.5 0.791,3.8652 1.462,7.7564 2.062,11.6875 0.601,3.9311 1.126,7.883 1.532,11.875 0.405,3.9921 0.701,8.0145 0.906,12.0625 0.205,4.048 0.312,8.1198 0.312,12.2188 0,103.5534 83.947,187.5 187.5,187.5 103.554,0 187.5,-83.9466 187.5,-187.5 0,-220.9139 -179.086,-400 -400,-400 z m 212.5,350 c 27.614,0 50,22.3857 50,50 0,27.6142 -22.386,50 -50,50 -27.614,0 -50,-22.3858 -50,-50 0,-27.6143 22.386,-50 50,-50 z"
       id="path3402-0" />
  </g>
</svg>
