<?xml version="1.0" encoding="UTF-8" standalone="no"?>
<!-- Created with Inkscape (http://www.inkscape.org/) -->

<svg
   xmlns:dc="http://purl.org/dc/elements/1.1/"
   xmlns:cc="http://creativecommons.org/ns#"
   xmlns:rdf="http://www.w3.org/1999/02/22-rdf-syntax-ns#"
   xmlns:svg="http://www.w3.org/2000/svg"
   xmlns="http://www.w3.org/2000/svg"
   xmlns:sodipodi="http://sodipodi.sourceforge.net/DTD/sodipodi-0.dtd"
   xmlns:inkscape="http://www.inkscape.org/namespaces/inkscape"
   width="12000"
   height="900"
   id="svg3021"
   version="1.1"
   inkscape:version="0.48.2 r9819"
   sodipodi:docname="number_source.svg">
  <defs
     id="defs3023" />
  <sodipodi:namedview
     id="base"
     pagecolor="#ffffff"
     bordercolor="#666666"
     borderopacity="1.0"
     inkscape:pageopacity="0.0"
     inkscape:pageshadow="2"
     inkscape:zoom="0.095833333"
     inkscape:cx="6000"
     inkscape:cy="450"
     inkscape:document-units="px"
     inkscape:current-layer="layer1"
     showgrid="true"
     inkscape:window-width="1280"
     inkscape:window-height="972"
     inkscape:window-x="-8"
     inkscape:window-y="-8"
     inkscape:window-maximized="1">
    <inkscape:grid
       type="xygrid"
       id="grid2999"
       empspacing="100"
       visible="true"
       enabled="true"
       snapvisiblegridlinesonly="true" />
  </sodipodi:namedview>
  <metadata
     id="metadata3026">
    <rdf:RDF>
      <cc:Work
         rdf:about="">
        <dc:format>image/svg+xml</dc:format>
        <dc:type
           rdf:resource="http://purl.org/dc/dcmitype/StillImage" />
        <dc:title></dc:title>
      </cc:Work>
    </rdf:RDF>
  </metadata>
  <g
     inkscape:label="Layer 1"
     inkscape:groupmode="layer"
     id="layer1"
     transform="translate(0,-152.36218)">
    <path
       inkscape:connector-curvature="0"
       id="path3004"
       style="font-size:873.17828369px;font-style:normal;font-variant:normal;font-weight:normal;font-stretch:normal;text-align:start;line-height:120.00000477%;letter-spacing:0px;word-spacing:0px;writing-mode:lr-tb;text-anchor:start;fill:#31b6e6;fill-opacity:1;stroke:none;font-family:Tahoma;-inkscape-font-specification:Tahoma"
       d="m 505.89147,602.36221 c -4.5e-4,113.97953 -16.55728,197.6164 -49.67055,250.91085 -33.11405,53.29458 -84.20573,79.94184 -153.27519,79.94186 -69.92265,-2e-5 -121.2275,-27.14469 -153.91472,-81.43411 C 116.34362,797.49153 99.999964,714.63631 100,603.21492 c -3.6e-5,-114.54737 16.5568,-198.32635 49.67054,-251.3372 33.11358,-53.00972 84.20526,-79.51486 153.27519,-79.51551 69.92217,6.5e-4 121.22703,27.42956 153.91473,82.28682 32.68691,54.85839 49.03056,137.42937 49.03101,247.71318 z M 396.74418,795.9281 c 8.24255,-21.03345 14.06942,-47.60965 17.48062,-79.72868 3.4105,-32.11863 5.11592,-70.06433 5.11628,-113.83721 -3.6e-4,-43.48801 -1.70578,-81.29159 -5.11628,-113.41085 -3.4112,-32.1184 -9.38019,-58.83672 -17.90698,-80.15504 -8.52745,-21.60153 -20.25225,-38.01625 -35.17441,-49.24419 -14.92277,-11.22681 -34.32197,-16.8405 -58.19768,-16.84108 -23.59194,5.8e-4 -42.99115,5.61427 -58.19767,16.84108 -15.20689,11.22794 -27.21592,27.92689 -36.02713,50.0969 -8.52727,21.60256 -14.35414,48.88935 -17.48062,81.86047 -3.12674,32.97197 -4.69005,70.20707 -4.68993,111.70542 -1.2e-4,44.34136 1.35001,81.43434 4.05039,111.27907 2.70013,29.84514 8.59806,56.56346 17.6938,80.15504 8.24274,21.88641 19.96754,38.72747 35.17442,50.52325 15.20652,11.79593 35.03208,17.69386 59.47674,17.6938 23.59147,6e-5 42.99068,-5.61363 58.19768,-16.84108 15.2064,-11.22731 27.07331,-27.92626 35.60077,-50.0969 z" />
    <path
       inkscape:connector-curvature="0"
       id="path3006"
       style="font-size:873.17828369px;font-style:normal;font-variant:normal;font-weight:normal;font-stretch:normal;text-align:start;line-height:120.00000477%;letter-spacing:0px;word-spacing:0px;writing-mode:lr-tb;text-anchor:start;fill:#31b6e6;fill-opacity:1;stroke:none;font-family:Tahoma;-inkscape-font-specification:Tahoma"
       d="m 1409.5349,919.99786 -309.5349,0 0,-64.8062 115.1163,0 0,-425.50387 -115.1163,0 0,-57.98449 c 43.4883,5.5e-4 75.536,-6.18162 96.1435,-18.54651 20.607,-12.36377 32.1897,-35.7423 34.748,-70.13566 l 66.0853,0 0,572.17053 112.5581,0 z" />
    <path
       inkscape:connector-curvature="0"
       id="path3008"
       style="font-size:873.17828369px;font-style:normal;font-variant:normal;font-weight:normal;font-stretch:normal;text-align:start;line-height:120.00000477%;letter-spacing:0px;word-spacing:0px;writing-mode:lr-tb;text-anchor:start;fill:#31b6e6;fill-opacity:1;stroke:none;font-family:Tahoma;-inkscape-font-specification:Tahoma"
       d="m 2591.8217,919.99786 -391.8217,0 0,-89.10852 c 28.1395,-26.71823 54.7157,-52.2996 79.7287,-76.74419 25.0128,-24.44425 49.4572,-49.8835 73.3333,-76.31783 48.3202,-53.15215 81.2917,-95.71671 98.9148,-127.69379 17.6224,-31.97634 26.4337,-65.01895 26.4341,-99.12791 -4e-4,-17.62225 -2.7717,-33.11319 -8.314,-46.47287 -5.5429,-13.35864 -13.1463,-24.4439 -22.8101,-33.25581 -9.9486,-8.52657 -21.4602,-14.92192 -34.5348,-19.18605 -13.0752,-4.26299 -27.4292,-6.39477 -43.0621,-6.39534 -15.0648,5.7e-4 -30.3425,1.91917 -45.8333,5.75581 -15.4911,3.83777 -30.3425,8.59875 -44.5543,14.28294 -11.9381,4.8326 -23.4497,10.65946 -34.5348,17.48062 -11.0854,6.82224 -20.0389,12.64911 -26.8605,17.48062 l -4.6899,0 0,-90.38759 c 17.6226,-8.81075 42.1381,-17.40893 73.5465,-25.79457 31.4081,-8.38437 61.182,-12.57688 89.3217,-12.57752 59.1212,6.4e-4 105.4519,15.70476 138.9922,47.1124 33.5397,31.40884 50.3097,73.97339 50.3101,127.6938 -4e-4,24.72913 -2.9138,47.61024 -8.7403,68.64341 -5.8273,21.03397 -13.857,40.50424 -24.0891,58.41085 -10.5172,18.47578 -23.1658,36.80909 -37.9458,55 -14.7807,18.19148 -30.4137,36.09844 -46.8992,53.72093 -26.7186,28.99245 -56.4925,59.12162 -89.3217,90.38759 -32.8296,31.26627 -59.0505,55.99492 -78.6628,74.18605 l 312.093,0 z" />
    <path
       inkscape:connector-curvature="0"
       id="path3010"
       style="font-size:873.17828369px;font-style:normal;font-variant:normal;font-weight:normal;font-stretch:normal;text-align:start;line-height:120.00000477%;letter-spacing:0px;word-spacing:0px;writing-mode:lr-tb;text-anchor:start;fill:#31b6e6;fill-opacity:1;stroke:none;font-family:Tahoma;-inkscape-font-specification:Tahoma"
       d="m 3476.5116,345.69555 c -15.349,5.7e-4 -30.6978,1.84811 -46.0465,5.54263 -15.349,3.69566 -30.4136,8.52769 -45.1938,14.49612 -13.6435,5.68531 -25.5104,11.65429 -35.6008,17.90698 -10.0905,6.25376 -19.115,12.08063 -27.0736,17.48062 l -5.1163,0 0,-89.96124 c 18.4754,-9.9477 43.5593,-18.97224 75.252,-27.07364 31.6923,-8.10013 61.8925,-12.15052 90.6007,-12.15116 28.7078,6.4e-4 53.7917,2.91408 75.252,8.74031 21.4596,5.8275 40.8588,14.85204 58.1976,27.07364 18.7593,13.64401 32.9002,30.12978 42.4225,49.45736 9.5216,19.32871 14.2825,41.92559 14.283,67.7907 -5e-4,34.9617 -11.5121,65.65934 -34.5349,92.09302 -23.0236,26.43449 -50.5947,43.2045 -82.7132,50.31008 l 0,5.96899 c 13.3589,2.55848 27.6418,6.96416 42.8488,13.21706 15.2064,6.25355 29.3472,15.49127 42.4225,27.71317 13.0746,12.22252 23.7335,27.92664 31.9768,47.11241 8.2424,19.18628 12.3639,42.56481 12.3643,70.13565 -4e-4,28.70817 -4.9035,55.0712 -14.7093,79.08915 -9.8066,24.01817 -23.6632,45.26492 -41.5698,63.74031 -18.4758,19.32819 -40.7884,33.96642 -66.938,43.91473 -26.1501,9.94831 -55.8529,14.92246 -89.1085,14.92248 -31.8348,-2e-5 -63.3851,-3.83722 -94.6511,-11.51163 -31.2663,-7.67441 -57.5582,-16.91213 -78.876,-27.71318 l 0,-89.96124 5.969,0 c 17.9069,13.07504 41.925,25.58149 72.0542,37.51938 30.1291,11.93805 60.2583,17.90704 90.3876,17.90698 17.3383,6e-5 34.7479,-2.77126 52.2287,-8.31395 17.4804,-5.54257 32.0475,-14.5671 43.7016,-27.07365 11.3692,-12.50635 20.0384,-26.29186 26.0077,-41.35659 5.9687,-15.06444 8.9532,-34.10835 8.9535,-57.13178 -3e-4,-23.02304 -3.3401,-41.92483 -10.0194,-56.70542 -6.6799,-14.7801 -15.9887,-26.43383 -27.9263,-34.96124 -11.9383,-8.52684 -26.0791,-14.42477 -42.4225,-17.6938 -16.3439,-3.26843 -34.0377,-4.90279 -53.0814,-4.9031 l -36.2403,0 0,-70.7752 28.1395,0 c 38.3719,3.8e-4 69.5669,-9.09521 93.5853,-27.28682 24.0178,-18.19079 36.0268,-44.62487 36.0271,-79.30232 -3e-4,-15.91681 -3.1269,-29.63127 -9.3798,-41.14341 -6.2536,-11.51109 -14.2122,-20.67775 -23.876,-27.5 -10.8013,-7.38962 -22.7393,-12.50589 -35.8139,-15.34884 -13.0752,-2.8418 -27.0029,-4.26299 -41.783,-4.26356 z" />
    <path
       inkscape:connector-curvature="0"
       id="path3012"
       style="font-size:873.17828369px;font-style:normal;font-variant:normal;font-weight:normal;font-stretch:normal;text-align:start;line-height:120.00000477%;letter-spacing:0px;word-spacing:0px;writing-mode:lr-tb;text-anchor:start;fill:#31b6e6;fill-opacity:1;stroke:none;font-family:Tahoma;-inkscape-font-specification:Tahoma"
       d="m 4837.8682,701.70329 -75.4651,0 0,218.29457 -81.8605,0 0,-218.29457 -280.5426,0 0,-89.53488 283.9534,-327.0155 78.4497,0 0,348.33333 75.4651,0 z m -157.3256,-68.21705 0,-248.13953 -214.031,248.13953 z" />
    <path
       inkscape:connector-curvature="0"
       id="path3014"
       style="font-size:873.17828369px;font-style:normal;font-variant:normal;font-weight:normal;font-stretch:normal;text-align:start;line-height:120.00000477%;letter-spacing:0px;word-spacing:0px;writing-mode:lr-tb;text-anchor:start;fill:#31b6e6;fill-opacity:1;stroke:none;font-family:Tahoma;-inkscape-font-specification:Tahoma"
       d="m 5878.1783,717.90484 c -4e-4,30.69785 -4.9035,59.12159 -14.7093,85.27132 -9.8066,26.14996 -23.5211,48.74684 -41.1434,67.7907 -17.9073,19.32819 -40.1489,34.53489 -66.7248,45.62015 -26.5765,11.08526 -56.3504,16.62789 -89.3217,16.62791 -30.4136,-2e-5 -60.3296,-3.33981 -89.7481,-10.01938 -29.4187,-6.67958 -54.929,-15.41989 -76.531,-26.22093 l 0,-89.96124 5.969,0 c 6.5374,4.83215 15.9172,10.30372 28.1395,16.41473 12.2222,6.1112 25.7234,11.86701 40.5039,17.26744 16.7699,5.96906 32.1187,10.58792 46.0465,13.85659 13.9275,3.26879 29.5605,4.90316 46.8992,4.9031 17.0541,6e-5 33.682,-3.05549 49.8838,-9.16667 16.2012,-6.11103 30.1289,-15.98828 41.7829,-29.63178 10.5165,-12.50635 18.5462,-27.14458 24.0892,-43.91473 5.5423,-16.76986 8.3136,-36.52437 8.3139,-59.26356 -3e-4,-22.45456 -3.0559,-40.92999 -9.1667,-55.42636 -6.1114,-14.49585 -14.9938,-26.43382 -26.6472,-35.81395 -12.2226,-10.80073 -27.2161,-18.40408 -44.9807,-22.81008 -17.7651,-4.40536 -37.5906,-6.6082 -59.4767,-6.60853 -23.0234,3.3e-4 -46.1888,1.77681 -69.4961,5.32946 -23.3076,3.55329 -41.9252,6.89308 -55.8527,10.01938 l 0,-327.0155 348.3333,0 0,74.6124 -266.0465,0 0,168.83721 c 10.2324,-1.13656 20.3228,-1.98927 30.2713,-2.55814 9.9481,-0.56808 19.0437,-0.85232 27.2868,-0.85271 32.4029,3.9e-4 59.8318,2.70065 82.2868,8.10077 22.4545,5.4009 44.0565,15.91769 64.8062,31.55039 21.0332,15.91765 37.1637,35.81427 48.3915,59.68992 11.227,23.87624 16.8407,55.00024 16.8411,93.37209 z" />
    <path
       inkscape:connector-curvature="0"
       id="path3016"
       style="font-size:873.17828369px;font-style:normal;font-variant:normal;font-weight:normal;font-stretch:normal;text-align:start;line-height:120.00000477%;letter-spacing:0px;word-spacing:0px;writing-mode:lr-tb;text-anchor:start;fill:#31b6e6;fill-opacity:1;stroke:none;font-family:Tahoma;-inkscape-font-specification:Tahoma"
       d="m 7011.8605,714.06763 c -5e-4,32.68752 -5.401,62.81668 -16.2016,90.3876 -10.8014,27.57115 -25.2976,50.59438 -43.4884,69.06977 -19.0443,19.61243 -40.3621,34.46383 -63.9534,44.55426 -23.5921,10.09043 -49.5998,15.13564 -78.0233,15.13566 -28.7082,-2e-5 -54.787,-4.83205 -78.2364,-14.49613 -23.4498,-9.66407 -44.1281,-24.01806 -62.0349,-43.06201 -21.8864,-23.02319 -39.0117,-53.79189 -51.376,-92.3062 C 6606.1821,744.83654 6600,697.43995 6600,641.16066 c 0,-55.14179 5.6847,-104.9544 17.0543,-149.43798 11.3694,-44.48274 28.85,-83.21009 52.4418,-116.18217 23.0232,-32.11829 52.726,-57.20224 89.1086,-75.25194 36.3821,-18.04846 78.4493,-27.073 126.2015,-27.07364 14.2115,6.4e-4 27.4286,0.71124 39.6512,2.13178 12.2218,1.42183 23.0228,3.69573 32.4031,6.8217 l 0,81.43411 -3.8372,0 c -7.6748,-4.263 -18.7601,-8.17127 -33.2559,-11.7248 -14.4964,-3.5524 -29.9874,-5.32889 -46.4728,-5.32946 -52.8685,5.7e-4 -95.5752,17.83647 -128.1202,53.50775 -32.5454,35.67232 -51.8024,88.61154 -57.7713,158.81783 20.1807,-14.21151 40.9301,-25.15465 62.2481,-32.82946 21.3176,-7.67402 44.6251,-11.51122 69.9224,-11.51163 24.7284,4.1e-4 46.4015,2.48749 65.0194,7.46124 18.6173,4.97456 38.0165,14.99393 58.1977,30.05814 23.3071,17.62309 40.6456,39.93573 52.0155,66.93799 11.3691,27.00285 17.0538,58.69533 17.0543,95.07751 z m -86.5504,3.41086 c -4e-4,-26.14965 -3.4112,-48.03593 -10.2326,-65.65892 -6.822,-17.62245 -17.9073,-32.68703 -33.2558,-45.1938 -11.0856,-9.09528 -23.6631,-15.06427 -37.7326,-17.90697 -14.07,-2.84204 -28.495,-4.26323 -43.2751,-4.26357 -19.8969,3.4e-4 -39.2251,2.98483 -57.9845,8.95349 -18.7599,5.96931 -37.2353,14.63856 -55.4264,26.00775 -0.5686,6.25353 -0.995,12.29357 -1.2791,18.12016 -0.2843,5.82715 -0.4264,13.14626 -0.4263,21.95736 -10e-5,44.05706 4.3345,79.58674 13.0039,106.58915 8.6691,27.00271 19.399,47.4678 32.1899,61.39535 12.222,13.35925 24.7995,22.73908 37.7325,28.13953 12.9326,5.40058 26.9313,8.10083 41.9962,8.10077 34.1082,6e-5 61.7503,-12.22215 82.9263,-36.66666 21.1754,-24.44433 31.7632,-60.96884 31.7636,-109.57364 z" />
    <path
       inkscape:connector-curvature="0"
       id="path3018"
       style="font-size:873.17828369px;font-style:normal;font-variant:normal;font-weight:normal;font-stretch:normal;text-align:start;line-height:120.00000477%;letter-spacing:0px;word-spacing:0px;writing-mode:lr-tb;text-anchor:start;fill:#31b6e6;fill-opacity:1;stroke:none;font-family:Tahoma;-inkscape-font-specification:Tahoma"
       d="m 8102.907,380.23043 -274.5737,539.76743 -90.8139,0 290.7752,-560.23255 -328.2946,0 0,-74.6124 402.907,0 z" />
    <path
       inkscape:connector-curvature="0"
       id="path3020"
       style="font-size:873.17828369px;font-style:normal;font-variant:normal;font-weight:normal;font-stretch:normal;text-align:start;line-height:120.00000477%;letter-spacing:0px;word-spacing:0px;writing-mode:lr-tb;text-anchor:start;fill:#31b6e6;fill-opacity:1;stroke:none;font-family:Tahoma;-inkscape-font-specification:Tahoma"
       d="m 9114.2248,433.09865 c -4e-4,-28.42326 -9.5223,-52.15709 -28.5659,-71.20155 -19.0442,-19.04335 -45.4783,-28.56531 -79.3023,-28.5659 -30.9822,5.9e-4 -56.3503,8.52771 -76.1047,25.5814 -19.7546,17.05481 -29.6319,40.07804 -29.6318,69.06977 -10e-5,21.03406 5.0451,38.7989 15.1357,53.29457 10.0903,14.49655 25.2259,27.57147 45.407,39.2248 8.8111,4.83244 22.2414,11.51202 40.2907,20.03876 18.0488,8.52751 34.4635,15.20709 49.2442,20.03876 24.7283,-19.04355 41.4983,-38.58487 50.31,-58.62403 8.8111,-20.03832 13.2167,-42.99049 13.2171,-68.85658 z m 11.938,318.06201 c -4e-4,-26.14968 -5.1167,-46.89901 -15.3489,-62.24806 -10.2329,-15.3486 -29.9874,-30.98165 -59.2635,-46.89923 -9.6644,-5.40023 -22.5261,-11.2271 -38.5853,-17.48062 -16.0597,-6.25293 -34.1798,-13.6431 -54.3605,-22.17054 -23.5919,15.63338 -41.6409,34.89046 -54.1473,57.77132 -12.5065,22.88137 -18.7598,48.96015 -18.7596,78.23643 -2e-4,38.37223 11.5825,70.06471 34.748,95.07752 23.1652,25.01298 52.2285,37.51943 87.1899,37.51938 35.8137,5e-5 64.5217,-10.72992 86.1241,-32.18993 21.6017,-21.45984 32.4027,-50.66524 32.4031,-87.61627 z m -119.3799,183.33333 c -31.5506,-2e-5 -60.2586,-4.68993 -86.124,-14.06977 -25.8658,-9.37984 -47.8942,-22.88111 -66.0853,-40.50388 -17.907,-17.0542 -31.4794,-37.30612 -40.717,-60.75581 -9.2378,-23.44949 -13.8567,-48.2492 -13.8566,-74.39922 -10e-5,-34.39256 9.1666,-66.01397 27.5,-94.86434 18.3332,-28.84983 44.9805,-51.80201 79.9418,-68.85659 l 0,-2.55814 c -31.2662,-18.19085 -54.4316,-38.08748 -69.4961,-59.68992 -15.0646,-21.60165 -22.5969,-48.6042 -22.5969,-81.00775 0,-47.75141 18.049,-87.54465 54.1473,-119.37985 36.0981,-31.83399 81.8603,-47.75128 137.2868,-47.75193 57.7,6.5e-4 103.9596,15.13629 138.7791,45.40697 34.8187,30.27189 52.2282,68.99924 52.2287,116.18217 -5e-4,28.42423 -8.3144,56.56374 -24.9419,84.41861 -16.6283,27.85567 -40.5753,49.59983 -71.8411,65.23255 l 0,2.55814 c 36.9506,17.33882 64.948,38.37239 83.9923,63.10078 19.0435,24.72893 28.5654,56.56352 28.5659,95.50387 -5e-4,54.28953 -19.6839,99.76752 -59.0504,136.43411 -39.3673,36.66667 -88.6114,54.99998 -147.7326,55 z" />
    <path
       inkscape:connector-curvature="0"
       id="path3022"
       style="font-size:873.17828369px;font-style:normal;font-variant:normal;font-weight:normal;font-stretch:normal;text-align:start;line-height:120.00000477%;letter-spacing:0px;word-spacing:0px;writing-mode:lr-tb;text-anchor:start;fill:#31b6e6;fill-opacity:1;stroke:none;font-family:Tahoma;-inkscape-font-specification:Tahoma"
       d="m 10226.163,546.08314 c -0,-43.20372 -3.98,-78.3781 -11.938,-105.52325 -7.959,-27.1442 -18.902,-48.10671 -32.83,-62.8876 -12.506,-13.64286 -25.155,-23.02269 -37.945,-28.13954 -12.791,-5.1157 -26.861,-7.67384 -42.21,-7.67441 -34.961,5.7e-4 -62.816,12.50702 -83.566,37.51938 -20.7491,25.01343 -31.1237,61.2537 -31.1236,108.72092 -10e-5,26.71876 3.4107,48.74716 10.2325,66.08527 6.8221,17.33885 17.9071,32.26132 33.2561,44.76745 10.801,8.81168 23.023,14.7096 36.666,17.69379 13.644,2.9848 28.282,4.47705 43.915,4.47675 18.191,3e-4 37.804,-3.19737 58.837,-9.59302 21.034,-6.39504 39.367,-14.8511 55,-25.36822 0.284,-4.26323 0.639,-9.87692 1.066,-16.84109 0.426,-6.96346 0.639,-14.70893 0.64,-23.23643 z M 9900,491.5095 c 0,-32.68688 5.3294,-62.53181 15.9884,-89.53489 10.6588,-27.00203 25.226,-50.3095 43.7015,-69.92248 17.6226,-18.75908 39.1536,-33.39731 64.5931,-43.91472 25.439,-10.51616 51.234,-15.77455 77.384,-15.7752 29.276,6.5e-4 55.781,4.90375 79.515,14.70931 23.734,9.80682 44.27,23.94763 61.609,42.42248 21.886,23.30806 38.869,53.86358 50.949,91.66666 12.08,37.80408 18.12,85.55597 18.12,143.25581 0,52.58428 -5.898,102.3969 -17.693,149.43799 -11.797,47.0415 -29.206,86.05309 -52.229,117.03488 -24.445,32.97163 -53.792,58.12664 -88.043,75.46511 -34.251,17.3385 -76.531,26.00774 -126.841,26.00775 -11.369,-10e-6 -23.449,-0.63954 -36.2401,-1.9186 -12.7908,-1.27908 -24.7287,-3.62404 -35.8139,-7.03488 l 0,-81.43411 4.2635,0 c 7.1059,3.9794 18.1912,7.81661 33.2559,11.51163 15.0646,3.69515 30.4136,5.54269 46.0466,5.54263 55.71,6e-5 99.483,-18.33325 131.318,-55 31.834,-36.66651 49.883,-89.10832 54.147,-157.32558 -22.739,15.3491 -44.412,26.57648 -65.019,33.68217 -20.608,7.10618 -42.992,10.65915 -67.152,10.65892 -23.591,2.3e-4 -45.051,-2.55791 -64.379,-7.67442 -19.329,-5.11604 -38.799,-15.06435 -58.4113,-29.84496 -22.739,-17.33822 -39.9354,-39.29556 -51.5891,-65.87209 C 9905.8268,561.07704 9900,529.02927 9900,491.5095 z" />
    <flowRoot
       xml:space="preserve"
       id="flowRoot3044"
       style="font-size:40px;font-style:normal;font-weight:normal;line-height:125%;letter-spacing:0px;word-spacing:0px;fill:#000000;fill-opacity:1;stroke:none;font-family:Sans"><flowRegion
         id="flowRegion3046"><rect
           id="rect3048"
           width="87.485046"
           height="59.858189"
           x="1091.2607"
           y="817.11945" /></flowRegion><flowPara
         id="flowPara3050" /></flowRoot>    <flowRoot
       xml:space="preserve"
       id="flowRoot3052"
       style="font-size:40px;font-style:normal;font-weight:normal;line-height:125%;letter-spacing:0px;word-spacing:0px;fill:#000000;fill-opacity:1;stroke:none;font-family:Sans"><flowRegion
         id="flowRegion3054"><rect
           id="rect3056"
           width="4.604476"
           height="41.440285"
           x="1418.1786"
           y="393.50766" /></flowRegion><flowPara
         id="flowPara3058" /></flowRoot>    <path
       id="path4437-8"
       style="fill:#31b6e6;fill-opacity:1;fill-rule:nonzero;stroke:none"
       d="m 11450,152.36192 c -248.528,0 -450,201.4719 -450,450.00004 0,248.5282 201.472,450.00024 450,450.00024 248.528,0 450,-201.47204 450,-450.00024 0,-248.52814 -201.472,-450.00004 -450,-450.00004 z m 0,100 c 193.3,0 350,156.7004 350,350.00004 0,193.2997 -156.7,350 -350,350 -193.3,0 -350,-156.7003 -350,-350 0,-193.29964 156.7,-350.00004 350,-350.00004 z m 0,-0.062 c -21.274,0 -42.116,1.8953 -62.344,5.5313 l -115.093,345.31254 250.812,-1.7188 -77.094,350.8438 c 1.237,0.013 2.48,0.031 3.719,0.031 5.016,0 10.004,-0.1348 14.969,-0.3438 l 162.469,-400 -204.75,1.7188 143.781,-281.53134 c -36.435,-12.853 -75.635,-19.8437 -116.469,-19.8437 z"
       inkscape:connector-curvature="0" />
  </g>
</svg>
